<?xml version="1.0" encoding="UTF-8" standalone="no"?>
<svg
   xmlns:dc="http://purl.org/dc/elements/1.1/"
   xmlns:cc="http://creativecommons.org/ns#"
   xmlns:rdf="http://www.w3.org/1999/02/22-rdf-syntax-ns#"
   xmlns:svg="http://www.w3.org/2000/svg"
   xmlns="http://www.w3.org/2000/svg"
   xmlns:sodipodi="http://sodipodi.sourceforge.net/DTD/sodipodi-0.dtd"
   xmlns:inkscape="http://www.inkscape.org/namespaces/inkscape"
   inkscape:version="1.0 (4035a4fb49, 2020-05-01)"
   id="svg30"
   version="1.1"
   viewBox="0 0 210 297"
   height="297mm"
   width="210mm">
  <defs
     id="defs24" />
  <sodipodi:namedview
     inkscape:window-maximized="0"
     inkscape:window-y="0"
     inkscape:window-x="130"
     inkscape:window-height="1040"
     inkscape:window-width="1374"
     showgrid="false"
     inkscape:document-rotation="0"
     inkscape:current-layer="layer1"
     inkscape:document-units="mm"
     inkscape:cy="508.37493"
     inkscape:cx="336.79123"
     inkscape:zoom="0.98994949"
     inkscape:pageshadow="2"
     inkscape:pageopacity="0.0"
     borderopacity="1.0"
     bordercolor="#666666"
     pagecolor="#ffffff"
     id="base" />
  <metadata
     id="metadata27">
    <rdf:RDF>
      <cc:Work
         rdf:about="">
        <dc:format>image/svg+xml</dc:format>
        <dc:type
           rdf:resource="http://purl.org/dc/dcmitype/StillImage" />
        <dc:title></dc:title>
      </cc:Work>
    </rdf:RDF>
  </metadata>
  <g
     id="layer1"
     inkscape:groupmode="layer"
     inkscape:label="Laag 1">
    <path
       id="path46"
       d="M 9.1663965,41.77193 V 207.3255 H 180.76759 V 41.77193 H 9.1663965 m 127.6712835,75.82354 -4.11843,0.33111 c 0.41528,2.97334 3.96365,9.15412 1.80456,11.82747 -3.96467,4.909 -5.76511,-4.03222 -7.12865,-5.43115 -1.06908,-1.09662 -2.62894,-0.51222 -3.93585,-1.01318 -1.70949,-0.65526 -2.16698,-2.48 -2.40894,-4.05872 l -10.29607,0.66222 c 0.22205,0.76254 0.47568,1.53005 0.58207,2.31841 0.29172,2.16048 -1.57941,4.47293 -3.99521,3.24982 -1.18542,-0.59997 -1.43149,-1.97208 -2.49782,-2.65912 -0.68092,-0.43872 -1.51833,-0.39137 -2.06986,0.21952 -2.10246,2.32801 3.43065,7.89194 -1.63055,8.9644 -3.652363,0.77412 -3.213413,-4.99277 -5.964523,-4.39876 -3.22816,0.69698 0.97195,6.15197 -3.30538,6.79365 -4.183637,0.62778 -4.15824,-5.65166 -5.228345,-8.19192 -0.483229,-1.14629 -1.919188,-2.47734 -3.090538,-1.18073 -1.443509,1.59859 0.635611,5.69505 1.111633,7.4668 0.522011,1.94261 -0.607468,2.94851 -0.617078,4.72987 -0.01373,2.57005 0.814076,4.56663 0.114973,7.18999 -1.002494,3.76104 -3.733356,6.86252 -7.386402,8.5015 -1.35565,0.60825 -3.910792,0.62447 -4.927357,1.67607 -1.46925,1.52011 0.842905,4.9825 -2.624469,5.53611 -2.378392,0.37945 -3.131722,-2.44158 -3.385691,-4.12493 -0.757105,-5.02224 -1.758913,-10.14943 -1.760972,-15.23093 -6.86e-4,-1.42707 -0.523727,-4.08619 1.080058,-4.89277 1.841624,-0.92611 2.7264,1.26979 3.074064,2.57502 1.006269,3.77793 1.848831,7.72109 2.366724,11.58875 6.878805,-0.99465 11.667508,-9.48258 6.104541,-14.82897 -4.083766,-3.92494 -9.34952,0.84201 -13.993049,0.1 -2.342356,-0.37415 -2.121677,-2.82799 -3.82602,-3.86866 -1.228321,-0.74995 -2.755229,-0.12317 -3.928981,-1.15391 -1.364573,-1.19794 -1.010388,-3.33689 -2.350593,-4.51895 -1.872169,-1.65123 -4.21281,-1.91081 -5.68858,-4.20473 -3.004737,-4.66993 0.496271,-11.53875 3.208942,-15.56203 6.800899,-10.087179 19.95619,-21.984199 33.172228,-22.816599 5.496044,-0.34601 10.194142,4.63252 14.757702,7.11417 10.423743,5.66822 21.391113,10.438819 31.917813,15.931219 3.55455,1.85487 9.41748,3.31505 11.6706,6.72943 1.16037,1.75751 2.79024,6.27083 1.65287,8.23695 -2.58672,4.47127 -5.9326,-1.14994 -6.45942,-3.60642 m -84.084578,6.95325 c -1.1638,-5.44274 1.940466,-10.4014 5.033749,-14.89982 7.361692,-10.704699 19.277679,-19.260839 32.375312,-22.184189 -1.718757,-5.76854 -11.349703,-2.63892 -15.100905,-1.03901 -10.412075,4.44048 -20.07082,12.98172 -25.589514,22.560979 -3.400793,5.90265 -4.043954,12.61883 3.281358,15.56204 m 10.982477,9.93321 c 0.192536,-1.27675 1.058093,-2.32636 0.863497,-3.64714 -0.395026,-2.68098 -2.99856,-6.58605 -1.976503,-9.26107 1.079715,-2.82567 10.14575,-3.7733 12.401276,-2.10617 2.75214,2.03366 2.681097,7.43004 3.898093,10.37756 0.85526,2.07141 3.135154,3.6829 4.376173,5.63014 2.371186,-3.03525 -4.518602,-10.12591 0.691553,-11.9023 5.054685,-1.72309 3.602596,8.43793 6.592575,9.66468 4.013064,1.6466 0.660664,-6.40626 4.728304,-6.72975 3.08882,-0.24601 2.94639,5.31957 5.797033,4.39776 3.1022,-1.00292 -0.88203,-6.18806 0.63526,-8.30747 3.14168,-4.38883 5.13774,3.86733 7.87272,1.74559 3.13,-2.42834 -3.45501,-7.77241 2.51189,-9.37761 2.91311,-0.78406 7.16126,-1.32476 8.87522,1.63765 0.89987,1.55488 0.73411,3.80972 2.00499,5.15236 1.34535,1.42144 3.67672,0.37614 5.10616,1.87473 1.52794,1.6019 1.18542,6.32944 4.2485,6.10396 2.0575,-0.15165 1.75789,-2.49456 1.4212,-3.8617 -0.63286,-2.56906 -4.46952,-10.35869 0.65209,-10.83151 3.37642,-0.3119 3.08127,3.70078 4.41118,5.48479 0.707,0.94796 2.28024,1.3784 3.22748,0.46554 1.17169,-1.12974 0.23475,-3.43458 -0.14175,-4.72093 -1.507,-5.14872 -7.76564,-6.92643 -12.30209,-9.18557 -9.13982,-4.55107 -18.28754,-9.083599 -27.45618,-13.580039 -3.168443,-1.55421 -7.704213,-5.13779 -11.325683,-5.24705 -3.526747,-0.10629 -8.214891,2.52138 -11.325678,3.94779 -10.443306,4.78914 -19.009638,13.093639 -24.107909,23.071549 -1.922963,3.76369 -3.740563,10.92455 0.306479,14.32171 0.984648,0.82677 2.43811,0.25992 3.545968,0.87511 2.058871,1.14365 1.839564,3.61238 4.468152,4.00739 M 89.818961,96.404611 c -1.018282,0.27846 -2.026953,0.57381 -3.088822,0.64235 -2.276461,0.14668 -5.679656,-1.08173 -3.060335,-3.57166 1.704343,-1.6201 9.698213,-4.3577 10.531513,-0.70824 0.5752,2.52139 -4.10196,5.17157 -4.382356,3.63755 m -6.520846,-1.32443 c 2.381482,0.84134 5.263009,0.37746 7.550112,-0.63043 0.65998,-0.29104 2.6049,-1.17477 1.99915,-2.16312 -1.50734,-2.45814 -8.664143,1.15026 -9.549262,2.79355 m 9.266462,-0.99332 -2.059211,0.99332 v 0.33111 l 2.402421,-0.99333 -0.34321,-0.3311 m 1.02961,0.3311 0.3432,0.33111 -0.3432,-0.33111 m -3.889512,1.10358 0.228572,0.11059 -0.228572,-0.11059 m -1.029608,0.33111 0.228573,0.11059 -0.228573,-0.11059 m -2.28813,0.22085 v 0.33111 h 1.37281 l -1.37281,-0.33111 m 4.118429,0 0.343201,0.33111 -0.343201,-0.33111 m 9.266461,0.66221 c -0.87242,1.25722 -1.61682,1.55257 -3.08882,0.99333 v -0.66221 l 3.08882,-0.33112 m 1.372813,7.284369 v -0.33111 l 1.37281,-0.33111 c -2.21846,-0.14337 -5.066693,1.44297 -7.111493,0.0205 -1.3862,-0.96451 -0.86762,-2.51674 0.2852,-3.397819 1.85363,-1.41714 5.156963,-2.3055 7.512703,-2.20749 2.43227,0.10132 3.86034,2.570049 2.17933,4.508349 -0.9994,1.15259 -2.77616,1.53005 -4.23855,1.73865 m 4.11843,-4.966609 c -2.44463,-0.99365 -5.17824,-0.396 -7.550113,0.62149 -0.72827,0.31223 -2.26376,0.934049 -2.08667,1.936309 0.17572,0.99432 2.06745,0.76751 2.77273,0.69566 2.461113,-0.25032 5.526253,-1.13835 6.864053,-3.253459 m -29.85861,0.77015 c 2.639913,-0.19634 5.26953,2.554499 2.69105,4.643779 -1.744498,1.4135 -5.303163,1.45555 -7.495883,1.49628 -2.172128,0.0407 -4.305818,-1.81017 -2.265823,-3.669 1.736948,-1.58303 4.751294,-2.298879 7.070656,-2.471059 m 2.745619,1.216489 c -2.428157,-0.69234 -5.240357,-0.3523 -7.550109,0.62248 -0.695671,0.29336 -2.613486,1.12809 -1.999154,2.1628 1.471995,2.48032 8.671352,-1.15491 9.549263,-2.78528 m 26.426591,-0.33111 -1.02961,0.66222 v 0.33111 l 1.37281,-0.66222 -0.3432,-0.33111 m -2.05922,1.98665 v 0.3311 l 3.08882,-1.32442 -3.08882,0.99332 m -0.6864,-0.66222 v 0.33111 l 1.37281,-0.33111 h -1.37281 m -1.37281,0.33111 v 0.33111 h 1.02961 l -1.02961,-0.33111 m -22.994565,0.33111 -0.343203,0.66221 0.343203,-0.66221 m 21.621752,0 v 0.3311 h 1.029613 l -1.029613,-0.3311 m -20.592145,0.3311 -0.343203,0.66222 0.343203,-0.66222 m -2.059215,0.33111 0.343203,0.33111 -0.343203,-0.33111 m 7.550453,2.97997 h -1.372809 l -0.686405,-2.64886 c 1.795635,-0.26389 1.934975,1.19728 2.059214,2.64886 m -8.236857,-2.64886 0.343202,0.33111 -0.343202,-0.33111 m 1.716012,0 -0.343203,0.66221 0.343203,-0.66221 m -2.516704,0.44136 0.228573,0.11059 -0.228573,-0.11059 m 44.044189,4.19414 1.37281,-0.66222 c -1.14355,1.74097 -2.70375,2.4704 -4.80484,2.64886 v -0.33111 l 1.37281,-0.3311 v -0.33111 c -2.46316,0.49004 -10.94952,2.05949 -7.20724,-2.97996 l -2.40241,-0.33111 v -0.66222 l 3.08881,-0.66221 v 0.66221 l -1.0296,0.66222 c 2.79263,-0.16489 5.26128,-2.06247 8.23651,-1.89559 2.94021,0.16456 2.92477,2.43761 1.37315,4.21334 m -45.073796,-3.86303 0.228573,0.11059 -0.228573,-0.11059 m 2.516703,-0.11026 0.343203,0.33111 -0.343203,-0.33111 m -4.118428,0.33111 v 0.33111 h 1.029607 l -1.029607,-0.33111 m 3.088821,0 0.343203,0.33111 -0.343203,-0.33111 m 33.97704,3.64218 c 3.04523,0.86849 8.94728,0.0639 9.95286,-3.31107 -3.41075,-0.19171 -8.26157,-0.10364 -9.95286,3.31107 m -39.811481,-3.31107 v 0.3311 h 1.716012 l -1.716012,-0.3311 m 5.148036,0 0.343203,0.3311 -0.343203,-0.3311 m 18.532932,5.95993 0.6864,-0.33111 c -1.34329,1.79659 -2.94158,2.53462 -5.148033,2.97996 0,-1.13801 -8.161696,1.74759 -6.749762,-2.64885 1.11987,-3.48656 12.991925,-5.93444 11.211395,0 m 25.053763,-3.64218 -1.37281,0.66221 v 0.33111 l 1.71602,-0.66222 -0.34321,-0.3311 m -35.693039,4.30439 c 3.359265,0.77148 8.355946,0.0874 10.296076,-2.97996 -3.243953,-0.92512 -8.664149,-0.22118 -10.296076,2.97996 m 16.473716,-1.98664 v 0.3311 c -1.57564,0.64666 -2.56921,0.0384 -3.43203,-1.32442 l 3.43203,0.99332 m 15.787303,-0.99332 v 0.3311 l 1.71601,-0.3311 h -1.71601 m 2.05921,0.3311 v 0.33111 l 2.05922,-0.66221 -2.05922,0.3311 m 14.75771,0.33111 c -0.68538,1.96611 -2.40208,0.62977 -3.08882,-0.66221 l 3.08882,0.66221 m -18.18973,-0.33111 v 0.33111 h 1.02961 l -1.02961,-0.33111 m -47.361925,0.66222 v 0.66221 l -1.372809,0.33111 v 0.33111 c 2.220863,0.30428 5.117491,-1.10623 7.156456,0.0593 4.039149,2.30848 -2.145358,5.80067 -4.410837,5.90066 v -0.3311 l 1.716012,-0.33111 v -0.33111 c -1.938407,0.38574 -4.539195,1.23801 -6.4752,0.41654 -3.490711,-1.48138 0.96131,-4.29678 2.699974,-4.72093 v -0.33111 l -2.059215,-0.3311 c 0.456116,-1.35821 1.352904,-1.60058 2.745619,-1.32443 M 110.7543,109.3178 v 0.33111 h 1.71601 l -1.71601,-0.33111 m -18.532923,0.99332 -0.3432,0.66222 0.3432,-0.66222 m -1.02961,0.66222 0.34321,0.3311 -0.34321,-0.3311 m 1.02961,0.66221 1.02961,-0.33111 -1.02961,0.33111 m -30.20181,2.97995 c 3.38981,1.37774 7.593696,-0.17548 10.296072,-2.31775 -2.442572,-2.40648 -8.679932,-0.23707 -10.296072,2.31775 m 28.485799,-3.31107 0.343201,0.33111 -0.343201,-0.33111 m -0.800691,0.44137 0.228572,0.11059 -0.228572,-0.11059 m -1.029608,0.33111 0.228573,0.11059 -0.228573,-0.11059 m 2.5167,-0.11026 0.34321,0.3311 -0.34321,-0.3311 m -4.118425,0.3311 v 0.33111 h 1.029607 l -1.029607,-0.33111 m 3.317737,0.11026 0.228573,0.11059 -0.228573,-0.11059 m -6.177643,0.33111 0.228573,0.11059 -0.228573,-0.11059 m 0.800691,-0.11026 v 0.33111 h 1.029608 l -1.029608,-0.33111 m 4.347345,0.11026 0.228573,0.11059 -0.228573,-0.11059 m -18.075441,0.88306 -0.343202,0.66222 0.343202,-0.66222 m -1.029607,0.66222 0.343203,0.3311 -0.343203,-0.3311 m 1.716012,0 -1.029607,0.66221 v 0.33111 l 1.37281,-0.66222 -0.343203,-0.3311 m -3.432024,0.66221 v 0.33111 l 1.37281,-0.33111 h -1.37281 m -1.372809,0.33111 v 0.33111 h 1.029607 l -1.029607,-0.33111 m 3.088821,0 0.343203,0.33111 -0.343203,-0.33111 m 40.154676,3.64218 10.29607,-0.66222 c -1.48847,-4.09778 -10.17629,-4.09943 -10.29607,0.66222 m -44.959509,-3.31107 v 0.3311 H 66.8244 l -1.372809,-0.3311 m 4.004142,0.11025 0.228573,0.11059 -0.228573,-0.11059 m 63.263517,1.21417 3.43203,-0.66221 c -1.41056,-0.39733 -2.38114,-0.37316 -3.43203,0.66221 m -9.60966,-0.3311 0.6864,3.31107 h -0.6864 c -0.64625,-1.25092 -1.03098,-2.21213 0,-3.31107 m -32.947427,4.6355 c -1.601382,0.29766 -3.013317,-0.25363 -2.745619,-1.98665 l 2.745619,1.98665 m -26.769787,2.31775 12.355287,-1.32443 c -1.498422,-4.09017 -12.299688,-3.22796 -12.355287,1.32443 m 0.343203,0.99332 2.059214,6.95325 c 4.322291,-0.98802 7.491765,-2.7068 12.012084,-1.32443 l -1.716012,-6.95325 -12.355286,1.32443 m -6.520846,1.98664 c -1.821032,0.26621 -1.987828,-1.16914 -2.059214,-2.64886 1.625063,0.26621 1.895163,1.18272 2.059214,2.64886 m 66.238397,1.8042 c 4.84053,-1.1443 6.65161,7.00193 7.49657,10.11566 0.336,1.23801 0.77221,3.07135 0.0439,4.25539 -0.48735,0.79234 -1.48092,1.13205 -2.34716,0.69565 -0.99837,-0.50295 -1.18611,-1.78135 -2.18174,-2.26212 -3.78758,-1.82904 -3.70521,4.08586 -5.80321,4.55504 -2.37152,0.53043 -2.40104,-2.53727 -2.21125,-3.93289 0.48632,-3.57496 0.28452,-12.31123 5.00286,-13.42673 m -2.40276,3.49352 2.05922,-2.31775 -2.05922,2.31775 m -9.60966,9.271 c 1.33643,-0.23939 7.49485,-0.2788 4.65073,2.47866 -1.58559,1.53733 -9.23454,3.12731 -10.47041,0.81287 -0.81751,-1.53071 0.72038,-3.63887 1.46513,-4.94707 0.83261,-1.4625 1.82515,-2.82997 2.63854,-4.30439 -0.92905,0.20727 -1.82103,0.52315 -2.74562,0.74135 -1.6357,0.3864 -4.19221,-0.63738 -2.49062,-2.51311 1.75343,-1.933 10.25488,-3.47265 10.31082,0.44865 0.0353,2.47966 -2.39589,5.05336 -3.35857,7.28304 m -12.698483,1.98664 c 0.91463,0 1.830983,-0.0152 2.745273,0.002 1.64943,0.0301 3.89466,1.53833 1.63776,2.87435 -2.45835,1.45521 -12.176473,3.53788 -9.915463,-1.88268 0.42489,-1.01882 0.97333,-2.01843 1.52108,-2.97996 0.78421,-1.37708 1.72836,-2.67171 2.63854,-3.97329 -0.91224,0.24966 -1.82275,0.53408 -2.74562,0.74532 -1.95145,0.44633 -4.889264,-0.93173 -2.35163,-2.73362 3.42139,-2.42933 12.156233,-2.77368 9.087323,3.31273 -0.79863,1.58335 -1.844713,3.0389 -2.617263,4.6355 m 5.834443,-9.271 1.0296,1.65553 -1.0296,-1.65553 m 19.56252,0 -1.0296,3.64218 2.40241,-0.33111 -1.37281,-3.31107 m -58.687599,0.33111 v 0.66221 l 0.686404,-0.66221 h -0.686404 m 45.302709,0 -0.6864,2.31775 h 0.3432 l 0.3432,-2.31775 m -23.336383,0.8814 c 1.449001,-0.13774 2.030042,1.35787 2.391091,2.43 0.918069,2.72733 1.325109,6.07383 1.377619,8.93956 0.0216,1.19662 -0.0652,3.00976 -1.702632,3.13029 -1.50906,0.11092 -2.046172,-1.7062 -2.328971,-2.79918 -0.719009,-2.7813 -1.438018,-5.73047 -1.452776,-8.60879 -0.0065,-1.22377 0.07207,-2.93559 1.715669,-3.09188 m -8.924635,0.44302 1.372809,6.62215 h 0.343203 c 0.425571,-2.31411 0.06624,-4.90569 -1.716012,-6.62215 m 8.58006,0 -0.686405,2.64886 h 0.343202 l 1.029608,-2.64886 h -0.686405 m 4.804835,0.66222 1.02961,1.32443 -1.02961,-1.32443 m -26.769789,0.33111 -0.686405,3.97328 h 0.343203 l 0.343202,-3.97328 m 32.947429,0 -0.6864,2.31775 h 0.3432 l 1.02961,-2.31775 h -0.68641 m 29.858603,4.6355 1.71601,1.98664 -1.71601,-1.98664 m -12.35529,0.66221 -0.3432,1.65554 h 0.3432 v -1.65554 m -9.26645,1.32443 2.05921,1.98664 v -0.33111 l -2.05921,-1.65553 m 12.69848,0 0.6864,1.98664 h 0.34321 l -1.02961,-1.98664 m -16.1305,0.66221 -0.34321,1.65554 h 0.34321 v -1.65554 m -9.266473,1.65554 2.05921,1.65553 v -0.3311 l -2.05921,-1.32443 m -5.491238,1.98664 1.37281,1.65554 -1.37281,-1.65554 m 43.243491,4.6355 0.68641,-1.98664 h -2.05922 l -1.71601,2.64886 0.68641,-1.98665 h -2.05922 l -1.71601,2.64886 0.68641,-1.98664 h -2.05922 v 1.98664 l -2.05921,-2.64886 1.37281,-1.32443 0.3432,1.98665 h 0.3432 c 0.0683,-2.01943 2.26514,-3.76966 2.74562,-0.99332 h 0.3432 c 0.15788,-1.99625 2.31216,-3.16804 2.74562,-0.66222 2.00362,-4.6355 5.17206,0.56818 1.71601,2.31775 m -0.3432,-3.64218 v 0.99332 h 0.3432 l 0.34321,-0.99332 h -0.68641 m -3.08882,0.33111 v 1.32443 h 0.3432 l -0.3432,-1.32443 m -3.08882,0.66221 v 1.32443 h 0.3432 l -0.3432,-1.32443 m -5.49124,0.99333 -1.71601,0.99332 1.71601,-0.99332 m -8.23686,0.99332 v 0.3311 c -1.3903,0.21191 -1.93839,0.71188 -2.4024,1.98665 3.07851,0.16323 3.00163,3.01771 0,2.31775 l 0.3432,-1.32443 c -3.19865,-0.9377 -0.46058,-3.95772 2.0592,-3.31107 m 3.43203,-0.33111 0.3432,2.64886 -1.71601,0.66221 -0.34321,-0.99332 h -0.3432 v 1.32443 h -0.3432 l -0.6864,-2.64886 1.0296,0.33111 h 1.37281 l 0.68641,-1.32443 m 2.74562,0.33111 -1.02961,1.32443 1.02961,-0.33111 v 1.32443 c -2.31662,-0.17814 -2.37394,-2.65217 0,-2.31775 m 2.74562,1.65553 -2.05922,0.66222 -0.3432,-1.65554 c 1.24445,-0.27846 1.68752,-0.0142 2.40242,0.99332 m -1.71602,-0.66221 v 0.33111 h 1.02961 l -1.02961,-0.33111 m -8.23685,2.31775 -0.6864,0.99332 0.6864,-0.99332 m -43.2435,1.98664 c 0.364138,1.72507 1.2925,2.45516 3.088822,2.64886 v -0.33111 l -3.088822,-2.31775 m 3.126231,6.10496 c 2.898344,-0.80228 4.195992,3.3263 1.320299,4.00937 -2.601817,0.61785 -3.831168,-3.31405 -1.320299,-4.00937 z"
       style="fill:#020202;stroke:none;stroke-width:0.337101" />
  </g>
</svg>
